<?xml version="1.0" encoding="UTF-8"?>
<svg id="Layer_1" data-name="Layer 1" xmlns="http://www.w3.org/2000/svg" viewBox="0 0 1259.88 267.05">
  <path fill="#000000" d="M1185.17,23.5c1.15,1.64-1.4,4.55-.71,5.53,1.79,2.5,5.22-1.93,5.97-3.73,12.5-34.89-152.77,5.56-172.06,7.14-9.05.98-65.26,12.4-39.25,25.28,1.91.42,3.56.04,5.37.21,2.49-.03,8.7,2.34,9.36-.76.09-1.62-11.15-3.07-11.14-4.06,44.56-15.31,93.15-21.62,139.8-28.73,16.03-1.51,48.89-8.15,62.65-.89ZM459.93,105.99c3.23-4.51,11.8-12.76,14.17-3.12.12,2.84-2.07,3.54-3.6,5.06-2.47,2.44-6.53,8.31-10.34,5.8-2.92-1.93-1.93-5.34-.23-7.73ZM761.03,140.79c-34.52,2.58-69.61,20.46-104.87,16.54-3.37-.92-2.48-5.02-2.37-7.75,12.67-36.93-32.54-8.17-45.96-.78-1.5-2.72,12.37-10.65,7.21-15.07-4.61-4.61-7.78,3.72-10.64,5.04-8.22,3.78-18.72,6.42-27.38,9.68-9.63,3.43-19.71,9.18-29.34,11.53,3.19-6.79,15.12-23.62,19.57-30.43,1.26-2.19-1.98-5.27-4.06-5.12-3.1.98-7.63,5.51-10.76,6.56-12.93-13.31-29.6,5.71-42.82,10.45-18.59,6.6-39.49,12.54-58.52,17.62-38.78,13.14-10.38-13.97.57-26.33.87-5.57-4.08-5.96-7.38-2.55-2.17,2.02-5.23,7.01-7.58,8.41-7.99,3.91-130.45,47.17-99.43,12.25,11.58,2.6,51.48-13.85,29.31-26.26-16.8-2.84-41.4,17.76-43.3,34.65,3.05,34.36,84.79-7.65,104.37-12.42,1.04-.41,3.13-2.38,2.71.17-29.96,47.49,63.73,3.07,79-1.21.96,1.45-1.01,2.64-1.49,3.58-2.23,4.37-1.45,9.09,3.76,10.39,8.75,1.75,27.82-12.28,35.3-17.01.98-.3.87.47.67,1.18,0,0-15.28,23.55-15.28,23.55-27.19,14.62-55.35,31.59-76.01,54.71-4.47,4.98-4.37,9.36-12.45,7.88-112.69-8.43-217.92-46.46-325-79.08-2.83-.73-12.42-1.37-5.2-3.43,76.94-22.12,161.41-39.16,226.58-87.88C408.99-12.94,215.11,5.18,183.04,16.92c-.99.2-2.23,1.78-2.41-.37.66-2.67,4.01-5.58,4.81-8.4,2.28-6.36-3.43-11.26-8.33-5.8-4.8,4.86-8.37,14.57-12.51,19.47C115.34,36.15,30.17,63.43,1.35,106.82c-8.18,21.04,22.86,24.71,36.18,20.88.05-.39.07-1.46-.07-1.68-.13-.19-3.82-1.31-4.39-1.45-86.19-8.26,104.38-91.26,124.24-89.98-16.22,31.26-39.18,73.58-54.8,105.86-3.06,2.34-7.64,1.92-11.31,2.91-7.97,1.49-15.62,0-23.36,2.02-4.51,1.17-10.03,4.66-5.3,9.37,3.6,3.31,11.07,2.14,15.45,4.14,3.4-.93,12.25-4.66,15.87-3.98.12.11.01,1.7-.12,2.17-11.94,22.59-23.83,46.15-33.66,69.9-1.76,3.14,2.88,8.4,5.86,6.37,9.97-19.8,20.16-40.05,30.65-59.7,1.19-2.25,7.44-15.7,8.75-16.13,37.75,4.3,72.83,21.8,108.82,33.18,66.47,22.18,135.46,36.65,205.35,41.36,8.73.55,17.69,1.47,26.33,1.59,1.13.31.53,1.32.17,2.09-7.22,10.12-15.47,31.87,4.92,31.31,11.27-.92,27.84-16.15,35.86-24.04,7.62-8.74,6.41-9.11,18.53-8.42,53.23.74,106.53-6.56,158.83-15.75,1.23-.25,6.84-1.4,7.41-1.73,1.47-.84.28-2.43-1.78-2.32-55.85,11.41-113.32,15.15-170.08,17.3-2.47-.22-2.68-.47-1.26-2.3,16.81-19.28,30.06-40.81,44.14-61.95,18.01-8.51,36.1-16.57,55.09-22.57,1.94,2.08-6.99,8.57-7.73,12.06-2.44,5.33-.26,8.78,5.7,8.23,16.29-8.65,32.62-23.15,50.76-26.93.49.06,1.15.37,1.25.83-15.58,39.62,44.44,21.86,64.63,17.86,16.48-3.44,33.05-7.53,49.73-10.68,3.94-1.14,1.96-5.05-.99-5.85ZM344.11,142.46c1.7-2.74,21.19-16.08,21.61-9.36.59,3.64-28.25,16.06-21.61,9.36ZM545.32,136.05c-7.95,4.99-18.33,11.41-27.09,14.28,2.39-6.28,19.28-16.63,26.15-16.78,1.82-.05,2.52,1.31.94,2.5ZM115.95,135.62c18.59-35.24,36.22-71.47,56.83-105.61,21.61-6.56,44.5-10.2,66.97-13.23,20.21-3.72,132.49-10.74,98.61,31.35-62.7,49.66-147.02,68.35-222.68,90.02-.07-.9-.07-1.65.27-2.52ZM481.17,235.86c-4.2,5.97-43.26,40.45-36.8,14.98,1.54-5.77,4.57-12.41,8.72-16.67.64.63,29.53-1.01,28.09,1.69ZM523.4,180.62c-11.08,18.28-24.72,35.02-38.67,51.18-7.79.74-15.81.19-23.6-.77-3.08-.3-6.81.99-3.31-3.29,3.39-3.8,7.54-9.23,11.68-12.16.83-4.09,69.5-53.07,53.89-34.96ZM1070.93,49.97c-28.13,65.23-54.57,132.11-74.11,200.26-23.53,11.21,19.51-82.66,20.66-92.29,4.45-7.2,48.05-149.54,53.46-107.97ZM1259.88,148.3c-16.32,5.38-33.77,13.17-51.53,14.2-6.82.2-27.44,6.64-32.16,2.23-3.13-11.28,17.2-27.43,5.37-29.56-1.19.3-4.62,3.21-5.76,4.19-.42.36-2,2.88-2.71,1.83-1.44-10.82-10.08-9.23-17.24-4.29-4.78,3.23-9.63,10.25-13.6,12.29-10.88,5.61-26.53,10.23-38.33,13.95-9.94,2.75-44.36,18.18-31.21-5.07,1.39-1.64,7.61-1.17,10.16-1.76,6.43-1.5,18.93-8.9,21.16-15.39.02-34.2-60.67,20.45-37.38,35.4,19.39,8.29,51.66-14.92,71.17-21.41,3.31.34-8.37,11.01-3.02,17.22,7.16,10.03,27.75-14.25,33.98-19.26-7.83,31.02,26.56,19.72,43.78,14.33,8.37-3.04,46.96-11.09,47.34-18.9ZM1084.23,143.97c2-2.21,15.58-11.37,12.96-3.29-3.23,5.12-29.05,17.61-12.96,3.29ZM1165.2,148.8c-2.04,1.34-27.25,23.66-20.97,13.04,4.57-6.61,14.38-21.99,23.63-20.27,4.85,2.29-.3,5.08-2.66,7.22ZM901.62,131.93c-10.2,2.18-21.62,5.22-31.87,5.72-2.3-.4-.29-1.91.37-3.21,8.3-17.05,20.68-35.5,30.87-51.12,3.33-.49-1.94,5.47-1.99,6.9-.43,1.85,2.09.05,2.73-.83,2.53-4.73,8.99-11.32,5.24-16.61-7.38-6.44-37.03,53.37-42.18,60.64-5.77,4.28-13.93,4.69-20.66,2.69,1.88-5.09,6.3-10.05,4.98-15.89-3.39-9.26-16.06-4.13-19.91,2.23-.49.72-.84,2.32-1.45,2.87-6.89,3.7-16.17,16.5-14.36,24.52,7.44,12.56,22.25-4.1,28.03-10.08,3.7-.39,7.92.65,11.53.48.97.29.74,2.2,1.82,2.75,1.75.89,3.65-.99,3.05,2.01-4.25,8.86-10.03,19.06-13.29,28.09-6.7,1.61-14.1.88-20.98,1.61-4.52.32-9.31,1.95-13.95,1.53v2.03s33.51-2.54,33.51-2.54c-1.38,6.5-8.83,24.03,4.43,21.43,4.26-1.74,10.74-9.69,13.26-13.65,1.22-1.92,3.89-8.38,5.92-8.8h28.17c-1.72-4.19-23.39-.23-27.92-1.53,11.44-31.29-10.23-30.25,8.33-31.51,3.03-.51,34.82-6.01,30.53-10.14-.97-1.44-3.18.17-4.21.41ZM834.92,139.32c-2.73,4.09-11,11.24-16.21,10.28-2.02-5.88,5.24-14.57,8.97-18.51,2.43-.4,2.33,3.75,4.04,4.99,1.04,1.1,3.63,1.57,3.2,3.24ZM839.28,134.06c-2.22,2.28-6.19-1.76-6.31-4.33.23-1.71,2.06-6.09,3.87-7,12.07-9.41,7.61,6.3,2.44,11.33ZM858.96,177.6c-.14.94-13.77,19.63-13.85,13.1.37-3.81,2.23-12.26,5.1-15.25,2.3-.13,11.02-2.93,8.75,2.15ZM861.83,171.84c-1.34,2.16-9.75,2.53-11.1,1.33-.37-.33,3.2-8.2,3.68-9.26,2.29-5.01,5.19-9.76,7.7-14.63.49-.95.18-3.05,2.06-2.5,4.89,6.92,1.59,18.25-2.34,25.06Z"/>
</svg>